<svg width="750" height="941" viewBox="0 0 750 941" fill="none" xmlns="http://www.w3.org/2000/svg">
<path opacity="0.075" fill-rule="evenodd" clip-rule="evenodd" d="M430 606C571.385 606 686 491.385 686 350C686 208.615 571.385 94 430 94C288.615 94 174 208.615 174 350C174 491.385 288.615 606 430 606ZM430 670C606.731 670 750 526.731 750 350C750 173.269 606.731 30 430 30C253.269 30 110 173.269 110 350C110 526.731 253.269 670 430 670Z" fill="#1687A7"/>
<path opacity="0.05" fill-rule="evenodd" clip-rule="evenodd" d="M385 877C526.385 877 641 762.385 641 621C641 479.615 526.385 365 385 365C243.615 365 129 479.615 129 621C129 762.385 243.615 877 385 877ZM385 941C561.731 941 705 797.731 705 621C705 444.269 561.731 301 385 301C208.269 301 65 444.269 65 621C65 797.731 208.269 941 385 941Z" fill="#1687A7"/>
<path opacity="0.025" fill-rule="evenodd" clip-rule="evenodd" d="M320 394C461.385 394 576 279.385 576 138C576 -3.3849 461.385 -118 320 -118C178.615 -118 64 -3.3849 64 138C64 279.385 178.615 394 320 394ZM320 458C496.731 458 640 314.731 640 138C640 -38.7311 496.731 -182 320 -182C143.269 -182 0 -38.7311 0 138C0 314.731 143.269 458 320 458Z" fill="#1687A7"/>
</svg>
